<mxfile host="app.diagrams.net" agent="Mozilla/5.0 (Windows NT 10.0; Win64; x64) AppleWebKit/537.36 (KHTML, like Gecko) Chrome/129.0.0.0 Safari/537.36 Edg/129.0.0.0" version="26.1.1">
  <diagram id="C5RBs43oDa-KdzZeNtuy" name="Page-1">
    <mxGraphModel dx="1829" dy="575" grid="1" gridSize="10" guides="1" tooltips="1" connect="1" arrows="1" fold="1" page="1" pageScale="1" pageWidth="827" pageHeight="1169" background="none" math="0" shadow="0">
      <root>
        <mxCell id="WIyWlLk6GJQsqaUBKTNV-0" />
        <mxCell id="WIyWlLk6GJQsqaUBKTNV-1" parent="WIyWlLk6GJQsqaUBKTNV-0" />
        <mxCell id="JZUy_UIlH2GKtHBBuBsd-9" style="edgeStyle=orthogonalEdgeStyle;rounded=0;orthogonalLoop=1;jettySize=auto;html=1;entryX=0;entryY=0.5;entryDx=0;entryDy=0;" edge="1" parent="WIyWlLk6GJQsqaUBKTNV-1" source="WIyWlLk6GJQsqaUBKTNV-3" target="JZUy_UIlH2GKtHBBuBsd-8">
          <mxGeometry relative="1" as="geometry" />
        </mxCell>
        <mxCell id="WIyWlLk6GJQsqaUBKTNV-3" value="用户进行代码编辑" style="rounded=1;whiteSpace=wrap;html=1;fontSize=12;glass=0;strokeWidth=1;shadow=0;" parent="WIyWlLk6GJQsqaUBKTNV-1" vertex="1">
          <mxGeometry x="-30" y="250" width="100" height="40" as="geometry" />
        </mxCell>
        <mxCell id="WIyWlLk6GJQsqaUBKTNV-12" value="Replace Bulb" style="rounded=1;whiteSpace=wrap;html=1;fontSize=12;glass=0;strokeWidth=1;shadow=0;" parent="WIyWlLk6GJQsqaUBKTNV-1" vertex="1">
          <mxGeometry x="750" y="60" width="120" height="40" as="geometry" />
        </mxCell>
        <mxCell id="JZUy_UIlH2GKtHBBuBsd-4" value="" style="edgeStyle=orthogonalEdgeStyle;rounded=0;orthogonalLoop=1;jettySize=auto;html=1;" edge="1" parent="WIyWlLk6GJQsqaUBKTNV-1" source="JZUy_UIlH2GKtHBBuBsd-0" target="JZUy_UIlH2GKtHBBuBsd-3">
          <mxGeometry relative="1" as="geometry" />
        </mxCell>
        <mxCell id="JZUy_UIlH2GKtHBBuBsd-5" value="用户选择某个位置" style="edgeLabel;html=1;align=center;verticalAlign=middle;resizable=0;points=[];" vertex="1" connectable="0" parent="JZUy_UIlH2GKtHBBuBsd-4">
          <mxGeometry x="-0.164" y="3" relative="1" as="geometry">
            <mxPoint as="offset" />
          </mxGeometry>
        </mxCell>
        <mxCell id="JZUy_UIlH2GKtHBBuBsd-0" value="提示可能的编辑位置（可能分布在多个文件中）" style="whiteSpace=wrap;html=1;rounded=1;glass=0;strokeWidth=1;shadow=0;" vertex="1" parent="WIyWlLk6GJQsqaUBKTNV-1">
          <mxGeometry x="380" y="230" width="120" height="60" as="geometry" />
        </mxCell>
        <mxCell id="JZUy_UIlH2GKtHBBuBsd-7" value="" style="edgeStyle=orthogonalEdgeStyle;rounded=0;orthogonalLoop=1;jettySize=auto;html=1;" edge="1" parent="WIyWlLk6GJQsqaUBKTNV-1" source="JZUy_UIlH2GKtHBBuBsd-3" target="JZUy_UIlH2GKtHBBuBsd-6">
          <mxGeometry relative="1" as="geometry" />
        </mxCell>
        <mxCell id="JZUy_UIlH2GKtHBBuBsd-3" value="进行代码生成" style="whiteSpace=wrap;html=1;rounded=1;glass=0;strokeWidth=1;shadow=0;" vertex="1" parent="WIyWlLk6GJQsqaUBKTNV-1">
          <mxGeometry x="640" y="300" width="120" height="60" as="geometry" />
        </mxCell>
        <mxCell id="JZUy_UIlH2GKtHBBuBsd-17" value="" style="edgeStyle=orthogonalEdgeStyle;rounded=0;orthogonalLoop=1;jettySize=auto;html=1;" edge="1" parent="WIyWlLk6GJQsqaUBKTNV-1" source="JZUy_UIlH2GKtHBBuBsd-6" target="JZUy_UIlH2GKtHBBuBsd-16">
          <mxGeometry relative="1" as="geometry" />
        </mxCell>
        <mxCell id="JZUy_UIlH2GKtHBBuBsd-18" value="是" style="edgeLabel;html=1;align=center;verticalAlign=middle;resizable=0;points=[];" vertex="1" connectable="0" parent="JZUy_UIlH2GKtHBBuBsd-17">
          <mxGeometry x="-0.3181" y="-1" relative="1" as="geometry">
            <mxPoint as="offset" />
          </mxGeometry>
        </mxCell>
        <mxCell id="JZUy_UIlH2GKtHBBuBsd-22" value="" style="edgeStyle=orthogonalEdgeStyle;rounded=0;orthogonalLoop=1;jettySize=auto;html=1;" edge="1" parent="WIyWlLk6GJQsqaUBKTNV-1" source="JZUy_UIlH2GKtHBBuBsd-6" target="JZUy_UIlH2GKtHBBuBsd-21">
          <mxGeometry relative="1" as="geometry" />
        </mxCell>
        <mxCell id="JZUy_UIlH2GKtHBBuBsd-23" value="否" style="edgeLabel;html=1;align=center;verticalAlign=middle;resizable=0;points=[];" vertex="1" connectable="0" parent="JZUy_UIlH2GKtHBBuBsd-22">
          <mxGeometry x="-0.355" relative="1" as="geometry">
            <mxPoint as="offset" />
          </mxGeometry>
        </mxCell>
        <mxCell id="JZUy_UIlH2GKtHBBuBsd-6" value="是否接受" style="rhombus;whiteSpace=wrap;html=1;rounded=1;glass=0;strokeWidth=1;shadow=0;" vertex="1" parent="WIyWlLk6GJQsqaUBKTNV-1">
          <mxGeometry x="440" y="400" width="80" height="80" as="geometry" />
        </mxCell>
        <mxCell id="JZUy_UIlH2GKtHBBuBsd-10" style="edgeStyle=orthogonalEdgeStyle;rounded=0;orthogonalLoop=1;jettySize=auto;html=1;" edge="1" parent="WIyWlLk6GJQsqaUBKTNV-1" source="JZUy_UIlH2GKtHBBuBsd-8" target="JZUy_UIlH2GKtHBBuBsd-0">
          <mxGeometry relative="1" as="geometry" />
        </mxCell>
        <mxCell id="JZUy_UIlH2GKtHBBuBsd-8" value="插件分析" style="shape=process;whiteSpace=wrap;html=1;backgroundOutline=1;" vertex="1" parent="WIyWlLk6GJQsqaUBKTNV-1">
          <mxGeometry x="160" y="240" width="110" height="60" as="geometry" />
        </mxCell>
        <mxCell id="JZUy_UIlH2GKtHBBuBsd-20" style="edgeStyle=orthogonalEdgeStyle;rounded=0;orthogonalLoop=1;jettySize=auto;html=1;" edge="1" parent="WIyWlLk6GJQsqaUBKTNV-1" source="JZUy_UIlH2GKtHBBuBsd-16" target="JZUy_UIlH2GKtHBBuBsd-8">
          <mxGeometry relative="1" as="geometry">
            <mxPoint x="170" y="350" as="targetPoint" />
          </mxGeometry>
        </mxCell>
        <mxCell id="JZUy_UIlH2GKtHBBuBsd-16" value="加入到历史编辑记录中" style="rounded=1;whiteSpace=wrap;html=1;glass=0;strokeWidth=1;shadow=0;" vertex="1" parent="WIyWlLk6GJQsqaUBKTNV-1">
          <mxGeometry x="155" y="400" width="120" height="60" as="geometry" />
        </mxCell>
        <mxCell id="JZUy_UIlH2GKtHBBuBsd-31" value="" style="edgeStyle=orthogonalEdgeStyle;rounded=0;orthogonalLoop=1;jettySize=auto;html=1;" edge="1" parent="WIyWlLk6GJQsqaUBKTNV-1" source="JZUy_UIlH2GKtHBBuBsd-21" target="JZUy_UIlH2GKtHBBuBsd-30">
          <mxGeometry relative="1" as="geometry" />
        </mxCell>
        <mxCell id="JZUy_UIlH2GKtHBBuBsd-32" value="否" style="edgeLabel;html=1;align=center;verticalAlign=middle;resizable=0;points=[];" vertex="1" connectable="0" parent="JZUy_UIlH2GKtHBBuBsd-31">
          <mxGeometry x="0.1152" y="-2" relative="1" as="geometry">
            <mxPoint as="offset" />
          </mxGeometry>
        </mxCell>
        <mxCell id="JZUy_UIlH2GKtHBBuBsd-33" style="edgeStyle=orthogonalEdgeStyle;rounded=0;orthogonalLoop=1;jettySize=auto;html=1;" edge="1" parent="WIyWlLk6GJQsqaUBKTNV-1" source="JZUy_UIlH2GKtHBBuBsd-21" target="JZUy_UIlH2GKtHBBuBsd-16">
          <mxGeometry relative="1" as="geometry" />
        </mxCell>
        <mxCell id="JZUy_UIlH2GKtHBBuBsd-34" value="是" style="edgeLabel;html=1;align=center;verticalAlign=middle;resizable=0;points=[];" vertex="1" connectable="0" parent="JZUy_UIlH2GKtHBBuBsd-33">
          <mxGeometry x="-0.1947" y="1" relative="1" as="geometry">
            <mxPoint as="offset" />
          </mxGeometry>
        </mxCell>
        <mxCell id="JZUy_UIlH2GKtHBBuBsd-21" value="是否自行键入修改" style="rhombus;whiteSpace=wrap;html=1;rounded=1;glass=0;strokeWidth=1;shadow=0;" vertex="1" parent="WIyWlLk6GJQsqaUBKTNV-1">
          <mxGeometry x="530" y="505" width="80" height="80" as="geometry" />
        </mxCell>
        <mxCell id="JZUy_UIlH2GKtHBBuBsd-35" style="edgeStyle=orthogonalEdgeStyle;rounded=0;orthogonalLoop=1;jettySize=auto;html=1;" edge="1" parent="WIyWlLk6GJQsqaUBKTNV-1" source="JZUy_UIlH2GKtHBBuBsd-30" target="JZUy_UIlH2GKtHBBuBsd-3">
          <mxGeometry relative="1" as="geometry" />
        </mxCell>
        <mxCell id="JZUy_UIlH2GKtHBBuBsd-30" value="选择下一个位置" style="whiteSpace=wrap;html=1;rounded=1;glass=0;strokeWidth=1;shadow=0;" vertex="1" parent="WIyWlLk6GJQsqaUBKTNV-1">
          <mxGeometry x="740" y="480" width="120" height="60" as="geometry" />
        </mxCell>
      </root>
    </mxGraphModel>
  </diagram>
</mxfile>
